<svg xmlns="https://www.w3.org/2000/svg" viewBox="0 0 323 40"><style/><g id="Docs"><path id="docs" d="M0 30.8h3.1c2.6 0 4.3 1.7 4.3 4.4s-1.7 4.4-4.3 4.4H0v-8.8zM3 38c1.7 0 2.6-1.1 2.6-2.8s-.9-2.8-2.6-2.8H1.8v5.5L3 38zm9.8 1.7c-2.4 0-4.1-1.9-4.1-4.5s1.7-4.5 4.1-4.5 4.1 1.9 4.1 4.5-1.7 4.5-4.1 4.5zm0-7.4c-1.4 0-2.3 1.2-2.3 2.9s.9 2.9 2.3 2.9 2.3-1.2 2.3-2.9-.9-2.9-2.3-2.9zm9.7-1.6c1 0 1.7.3 2.3.7v1.8c-.7-.6-1.4-.9-2.2-.9-1.6 0-2.6 1.1-2.6 2.8s1 2.8 2.6 2.8c.8 0 1.5-.3 2.2-.8v1.8c-.6.4-1.3.7-2.3.7-2.5 0-4.3-1.8-4.3-4.5 0-2.6 1.8-4.4 4.3-4.4zm4.1 5.4v-5.2h1.8v5c0 1.5.7 2.2 1.8 2.2s1.8-.7 1.8-2.2v-5h1.8v5.2c0 2.4-1.4 3.6-3.6 3.6-2.1 0-3.6-1.2-3.6-3.6zm13.6 1.6L37.7 34v5.6h-1.8v-8.7h1.7l2.6 4.1 2.6-4.1h1.7v8.7h-1.8V34l-2.5 3.7zm12.5-6.9v1.6h-4.1v1.9h3.7v1.5h-3.7v2.1h4.1v1.6h-5.9v-8.7h5.9zm9.2 8.8h-1.4l-4.1-5.8v5.8h-1.7v-8.7h1.7l3.8 5.5v-5.5h1.7v8.7zm1.5-8.8h7.4v1.6H68v7.1h-1.8v-7.1h-2.8v-1.6zm12.5 0l3.3 8.7h-1.8l-.8-2.1h-3.3l-.8 2.1h-1.8l3.3-8.7h1.9zm-2 5.1H76L74.9 33l-1 2.9zm5.2-5.1h7.4v1.6h-2.8v7.1h-1.8v-7.1h-2.8v-1.6zm10.7 8.8H88v-8.7h1.8v8.7zm5.8.1c-2.4 0-4.1-1.9-4.1-4.5s1.7-4.5 4.1-4.5 4.1 1.9 4.1 4.5c.1 2.6-1.6 4.5-4.1 4.5zm0-7.4c-1.4 0-2.3 1.2-2.3 2.9s.9 2.9 2.3 2.9 2.3-1.2 2.3-2.9-.9-2.9-2.3-2.9zm13.2 7.3h-1.4l-4.1-5.8v5.8h-1.7v-8.7h1.7l3.8 5.5v-5.5h1.7v8.7zm9.9-8.8l3.3 8.7h-1.8l-.8-2.1h-3.3l-.8 2.1h-1.8l3.3-8.7h1.9zm-1.9 5.1h2.1l-1.1-2.9-1 2.9zm14 3.7h-1.4l-4.1-5.8v5.8h-1.7v-8.7h1.7l3.8 5.5v-5.5h1.7v8.7zm2.2-8.8h3.1c2.6 0 4.3 1.7 4.3 4.4s-1.7 4.4-4.3 4.4H133v-8.8zm3 7.2c1.7 0 2.6-1.1 2.6-2.8s-.9-2.8-2.6-2.8h-1.2v5.5l1.2.1zm13.9-7.2l3.3 8.7h-1.8l-.8-2.1h-3.3l-.8 2.1h-1.8l3.3-8.7h1.9zm-2 5.1h2.1l-1.1-2.9-1 2.9zm8.5.6v3h-1.8v-8.7h3.5c1.8 0 3.1 1 3.1 2.9 0 1.8-1.2 2.8-3.1 2.8h-1.7zm1.7-4.1h-1.6V35h1.6c.9 0 1.4-.5 1.4-1.3-.1-.8-.5-1.3-1.4-1.3zm6.5 7.2h-1.8v-8.7h1.8v8.7zm7.2-3.3v3.3H170v-8.7h3.6c1.8 0 3.1 1 3.1 2.8 0 1.4-.8 2.3-2 2.6l2.3 3.4h-2l-2.2-3.3-1-.1zm0-1.5h1.7c.9 0 1.4-.5 1.4-1.2s-.5-1.2-1.4-1.2h-1.7v2.4zm12.5-4v1.6h-4.1v1.9h3.7v1.5h-3.7v2.1h4.1v1.6h-5.9v-8.7h5.9zm2 8.8v-8.7h5.8v1.6h-4v2.2h3.7v1.6h-3.7v3.3h-1.8zm13.4-8.8v1.6h-4.1v1.9h3.7v1.5h-3.7v2.1h4.1v1.6h-5.9v-8.7h5.9zm3.8 5.5v3.3h-1.8v-8.7h3.6c1.8 0 3.1 1 3.1 2.8 0 1.4-.8 2.3-2 2.6l2.3 3.4h-2l-2.2-3.3-1-.1zm0-1.5h1.7c.9 0 1.4-.5 1.4-1.2s-.5-1.2-1.4-1.2h-1.7v2.4zm12.5-4v1.6h-4.1v1.9h3.7v1.5h-3.7v2.1h4.1v1.6h-5.9v-8.7h5.9zm9.3 8.8h-1.4l-4.1-5.8v5.8H218v-8.7h1.7l3.8 5.5v-5.5h1.7v8.7h.1zm6.1-8.9c1 0 1.7.3 2.3.7v1.8c-.7-.6-1.4-.9-2.2-.9-1.6 0-2.6 1.1-2.6 2.8s1 2.8 2.6 2.8c.8 0 1.5-.3 2.2-.8v1.8c-.6.4-1.3.7-2.3.7-2.5 0-4.3-1.8-4.3-4.5 0-2.6 1.8-4.4 4.3-4.4zm10.1.1v1.6h-4.1v1.9h3.7v1.5h-3.7v2.1h4.1v1.6h-5.9v-8.7h5.9z" fill="#fff" opacity=".4"/></g><g id="AJAX"><path id="ajax" d="M0 1.5h16.3V3H9v18.5H7.3V3H0V1.5zm21.2 18.9c1.6 0 2.8-.4 4.1-1.4v1.6c-1.1.9-2.5 1.3-4.2 1.3-4.1 0-6.8-2.9-6.8-7.4s2.4-7.7 6.3-7.7c3.8 0 5.7 2.9 5.7 7.1v.6H15.9c0 3.8 2.3 5.9 5.3 5.9zM16 13.1h8.8c-.1-2.5-1.3-4.9-4.2-4.9-2.4 0-4.2 1.7-4.6 4.9zm14.4 8.4h-1.6V.3h1.6v21.2zm9.3-1.1c1.6 0 2.8-.4 4.1-1.4v1.6c-1.1.9-2.5 1.3-4.2 1.3-4.1 0-6.8-2.9-6.8-7.4s2.4-7.7 6.3-7.7c3.8 0 5.7 2.9 5.7 7.1v.6H34.4c0 3.8 2.3 5.9 5.3 5.9zm-5.2-7.3h8.8c-.1-2.5-1.3-4.9-4.2-4.9-2.4 0-4.2 1.7-4.6 4.9zM54 8.5c-.4-.2-.8-.3-1.3-.3-1.8 0-3.2 1.3-3.9 3.1v10.1h-1.6V7h1.6v2.3c.7-1.4 2.1-2.6 3.9-2.6.6 0 .9.1 1.3.2v1.6zm2.6-4.8c-.6 0-1.1-.5-1.1-1.1s.5-1.1 1.1-1.1 1.1.5 1.1 1.1c0 .6-.5 1.1-1.1 1.1zm.8 17.8h-1.6V7h1.6v14.5zm14.5 0h-2l-7.5-7.4v7.4h-1.6V.3h1.6v13.1L69.7 7h2.1l-7.7 6.6 7.8 7.9zm10.9-7.9V1.5h1.7v11.9c0 4.7 2.5 6.9 6 6.9s6-2.2 6-6.9V1.5h1.7v12.2c0 5.5-3.4 8.2-7.7 8.2-4.4-.1-7.7-2.8-7.7-8.3zm20.7 7.9h-1.7v-20h1.7v20zm17.4-19.7c-.4-.2-.9-.4-1.5-.4-1.5 0-2.6 1.1-2.6 3.1V7h3.4v1.4h-3.4v13.1h-1.6V8.4h-2.4V7h2.4V4.4c0-2.6 1.7-4.4 4.1-4.4.6 0 1.1.1 1.6.3v1.5zm5.9 20c-3.8 0-6.4-3.1-6.4-7.5 0-4.5 2.6-7.5 6.4-7.5 3.9 0 6.4 3.1 6.4 7.5 0 4.5-2.5 7.5-6.4 7.5zm0-13.6c-2.9 0-4.8 2.4-4.8 6.1s1.9 6.1 4.8 6.1 4.8-2.4 4.8-6.1-1.9-6.1-4.8-6.1zm15.7.3c-.4-.2-.8-.3-1.3-.3-1.8 0-3.2 1.3-3.9 3.1v10.1h-1.6V7h1.6v2.3c.7-1.4 2.1-2.6 3.9-2.6.6 0 .9.1 1.3.2v1.6zm17-7l7.9 20.1h-1.7l-2.6-6.6h-8.9l-2.6 6.6h-1.7L158 1.5h1.5zm-4.6 11.9h7.7l-3.9-9.8-3.8 9.8zm13.6 4.5c1.9 1.7 3.9 2.4 6.2 2.4 2.9 0 4.7-1.4 4.7-3.8 0-2-1.1-2.8-3.6-3.9l-2.9-1.2c-2.1-.9-4.3-2.1-4.3-5.1 0-3.4 2.8-5.1 6.1-5.1 2.1 0 4.1.6 5.6 1.7v1.9c-1.6-1.3-3.3-2-5.6-2-2.5 0-4.5 1.2-4.5 3.5 0 2 1.4 2.8 3.5 3.7l3.1 1.3c2.9 1.3 4.3 2.7 4.3 5.3 0 3.2-2.7 5.3-6.3 5.3-2.7 0-4.9-.8-6.2-2v-2h-.1zm16.9-5v8.7h-1.7V1.5h7.1c3.9 0 6.5 2 6.5 5.7 0 3.8-2.6 5.7-6.5 5.7h-5.4zm5.3-9.9h-5.4v8.4h5.4c3.1 0 4.9-1.5 4.9-4.2S193.8 3 190.7 3zm5.3 16.1c.7 0 1.2.6 1.2 1.3 0 .7-.6 1.2-1.2 1.2-.7 0-1.2-.6-1.2-1.2 0-.7.6-1.3 1.2-1.3zm19.2 2.4h-1.1L201.8 4.1v17.4h-1.6v-20h1.6l11.8 16.7V1.5h1.6v20zm16.3-20V3h-10.8v7.4h9.8V12h-9.8v8h10.8v1.5H219v-20h12.5zm1.7 0h16.3V3h-7.3v18.5h-1.7V3h-7.3V1.5zm33.6 0l7.9 20.1H273l-2.6-6.6h-8.9l-2.6 6.6h-1.7l7.9-20.1h1.7zm-4.6 11.9h7.7L266 3.6l-3.8 9.8zm13.6 5.4c1.3 1 2.4 1.4 3.8 1.4 2.6 0 3.8-1.5 3.8-5.2V1.5h1.7v13.7c0 4.6-2 6.7-5.5 6.7-1.6 0-3-.6-3.8-1.2v-1.9zm19.7-17.3l7.9 20.1h-1.7l-2.6-6.6h-8.9l-2.6 6.6H286l8-20.1h1.5zm-4.6 11.9h7.7l-3.9-9.8-3.8 9.8zm22.6-2.1l7.1 10.2h-1.9l-6.2-8.9-6.2 8.9h-1.8l7.1-10.2-6.9-9.9h1.9l5.9 8.6 6-8.6h1.8l-6.8 9.9zM75.7 8.2c-1.2 0-2.1-.9-2.1-2.1s1-2.1 2.1-2.1c1.2 0 2.1.9 2.1 2.1 0 1.2-.9 2.1-2.1 2.1m0-3.9c-1 0-1.7.7-1.7 1.7s.8 1.8 1.7 1.8c1 0 1.7-.7 1.7-1.8 0-1-.7-1.7-1.7-1.7m-.2 2.1v.7h-.6V4.9h1c.5 0 .8.3.8.8 0 .3-.2.6-.4.7l.5.8h-.7l-.4-.7h-.2v-.1zm.3-1h-.3v.5h.3c.2 0 .3-.1.3-.2 0-.2-.1-.3-.3-.3" fill="#fff"/></g></svg>